PathFileType	4	(X/Y/Z)	C:\Users\WrightLab\Desktop\Jo\P2_Trial8.trc
DataRate	CameraRate	NumFrames	NumMarkers	Units	OrigDataRate	OrigDataStartFrame	OrigNumFrames
100.00	100.00	       23	19	mm	100.00	1	       932
Frame#	Time	Headset_Front			Headset_Back			Headset_Left			Headset_Right			Left_Shoulder			Right_Shoulder			Sternum			C7			Left Elbow			Right Elbow			Left Wrist			Right Wrist			Left ASIS			Right ASIS			S2			Left Knee			Right Knee			Left Ankle			Right Ankle			
		X1	Y1	Z1	X2	Y2	Z2	X3	Y3	Z3	X4	Y4	Z4	X5	Y5	Z5	X6	Y6	Z6	X7	Y7	Z7	X8	Y8	Z8	X9	Y9	Z9	X10	Y10	Z10	X11	Y11	Z11	X12	Y12	Z12	X13	Y13	Z13	X14	Y14	Z14	X15	Y15	Z15	X16	Y16	Z16	X17	Y17	Z17	X18	Y18	Z18	X19	Y19	Z19	

1	0.000	-49.08545	1757.67700	2238.99951				-176.37503	1660.16479	2175.04053				-210.75279	1506.71350	2230.74170							-46.86805	1502.45129	2364.16870																						-168.44312	526.43274	2148.12402				-168.94656	172.63136	2101.33374				
2	0.010	-49.18971	1757.03210	2234.30859				-176.03990	1658.81030	2170.19604				-210.50737	1505.81091	2226.32251							-47.00129	1501.77209	2360.37256																						-167.12358	524.87488	2140.50806				-162.13028	172.81934	2089.42603				
3	0.020	-48.93430	1755.77856	2229.54346				-176.21693	1657.74402	2166.01221				-210.06277	1504.36523	2221.32324							-46.50219	1500.20435	2355.47290																						-166.21033	524.29633	2134.14185				-154.95287	173.66548	2077.55078				
4	0.030	-48.93266	1754.94348	2224.52832				-176.04709	1656.61292	2161.13501				-209.92960	1503.02795	2216.82764							-46.68668	1499.93506	2351.38672																						-165.37166	523.26331	2127.86230				-148.10046	174.49335	2064.66406				
5	0.040	-48.98666	1754.04382	2219.58789				-176.09030	1655.46680	2156.42773				-209.27800	1501.74133	2211.30444							-46.29496	1498.53247	2345.76904																						-164.55045	522.56335	2121.54395				-141.03828	175.52193	2052.10083				
6	0.050	-49.05872	1752.98743	2214.64355				-175.99431	1654.16272	2151.52612				-209.26213	1500.46765	2206.63525							-46.15417	1497.82898	2341.48511																						-164.06017	522.18085	2112.69604				-134.89499	175.94557	2039.94250				
7	0.060	-48.74162	1751.49524	2208.97949				-175.93007	1653.03442	2146.36475				-209.06291	1498.84875	2201.38745							-46.62471	1496.84546	2336.85181																						-162.35936	520.94073	2105.79688				-128.53311	177.31624	2029.50745				
8	0.070	-48.86302	1750.44092	2203.69116				-176.16373	1651.36023	2141.48340				-208.86807	1497.53967	2196.45093							-46.30344	1495.24829	2331.47339																						-161.72908	519.71301	2098.51465				-122.78480	178.01254	2018.37585				
9	0.080	-48.89149	1748.96863	2198.46021				-176.20441	1649.73889	2136.40088				-208.98332	1496.16431	2190.93042							-46.69332	1494.43530	2326.93213																						-160.90779	519.36658	2090.15234				-115.08861	178.69649	2007.30273				
10	0.090	-49.07968	1747.97131	2192.62207				-176.45792	1648.46216	2131.31836				-208.21741	1494.11414	2184.81860							-46.30730	1492.76892	2320.89526																						-159.50775	517.69446	2083.96533				-110.85592	179.26242	1997.40100				
11	0.100	-49.25499	1746.31506	2186.94946				-176.44252	1646.82861	2125.37061				-208.34279	1492.50903	2179.40112							-46.72753	1491.62134	2315.82666																						-158.58655	517.26501	2075.50562				-105.68432	180.25592	1987.27490				
12	0.110	-49.52435	1744.71460	2181.59473				-176.60129	1645.26099	2120.21704				-208.48689	1490.92944	2173.94067							-46.88464	1490.33826	2310.44751																						-157.62657	516.21460	2066.48560				-100.29532	180.48148	1976.36133				
13	0.120	-49.42148	1742.94958	2175.54590				-176.78828	1643.50378	2114.47876				-207.67165	1488.58667	2167.38428							-47.30142	1488.90125	2305.27930																						-156.22498	514.35956	2059.94678				-96.60175	181.57814	1966.40967				
14	0.130	-49.91974	1741.40039	2169.72168				-177.11554	1641.59705	2108.35156				-207.95317	1486.85144	2161.56445							-47.61503	1487.46545	2299.40723																						-155.24071	513.04443	2050.87500				-94.58775	181.01915	1956.10132				
15	0.140	-49.84883	1739.23523	2162.87817				-177.37701	1639.43518	2102.98096				-207.84305	1484.62891	2154.80200							-47.76530	1485.73364	2293.11060																						-153.77390	510.71207	2042.98157				-92.53826	182.03265	1946.11731				
16	0.150	-50.62975	1737.66602	2157.37622				-177.74730	1637.59314	2097.31763				-207.87643	1482.81177	2148.91626							-48.47557	1484.26538	2287.89624	-308.72375	1175.05847	2165.16089																			-152.49777	508.08231	2035.90979				-92.44237	180.44647	1935.72974				
17	0.160	-50.89780	1735.97107	2151.17041				-178.03650	1635.31885	2090.93286				-207.61270	1480.79138	2142.14893							-48.65200	1482.35217	2281.78027	-308.29257	1172.94116	2159.98535																			-151.68127	506.16653	2025.84863				-92.28574	179.72629	1926.61353				
18	0.170	-50.95860	1733.85156	2144.42456				-178.94751	1633.46936	2085.55493				-207.71455	1478.23938	2135.15796							-49.39071	1481.20630	2275.97388	-308.11224	1170.16882	2152.70947																			-151.09151	504.09872	2018.69226				-92.88493	177.18121	1917.01160				
19	0.180	-51.90797	1732.05139	2138.57959				-179.14084	1631.57849	2078.66992				-208.05717	1476.29150	2128.03394							-50.30462	1479.47961	2270.05591	-307.63654	1167.36816	2146.00928																			-149.70543	501.10056	2011.95422				-93.26572	174.56853	1909.78955				
20	0.190	-52.33696	1730.03418	2131.75024				-180.12782	1629.85864	2073.31982				-207.74020	1474.04468	2120.19360							-50.89035	1477.40295	2263.30859	-307.30115	1164.71436	2139.66992																			-148.61516	498.82486	2002.55432				-94.42773	171.99934	1902.38940				
21	0.200	-53.08289	1728.19800	2125.62524				-179.85310	1627.73120	2065.31787				-207.75639	1471.93420	2113.58472							-51.74159	1475.70532	2256.57788	-307.20325	1161.87683	2132.24854																			-147.33989	496.11380	1996.76807				-95.93800	169.46753	1894.12109				
22	0.210	-53.33568	1726.36169	2118.41333				-181.12532	1626.36133	2059.93335				-207.16165	1469.94250	2105.63208							-53.04116	1474.18848	2250.53784	-307.13611	1158.66943	2125.00903																			-146.50734	493.68375	1988.31165				-98.00627	166.08359	1887.13025				
23	0.220	-54.26277	1724.88745	2111.86841				-181.95097	1624.31482	2053.49512				-206.98413	1467.54651	2097.66650							-53.74732	1472.48157	2243.47461	-307.00677	1154.96423	2117.76929																			-144.97408	492.00961	1979.58032				-99.76534	163.07280	1878.63245				
